<?xml version="1.0" encoding="utf-8"?>
<!-- Generator: Adobe Illustrator 16.0.0, SVG Export Plug-In . SVG Version: 6.00 Build 0)  -->
<!DOCTYPE svg PUBLIC "-//W3C//DTD SVG 1.1//EN" "http://www.w3.org/Graphics/SVG/1.1/DTD/svg11.dtd">
<svg version="1.1" id="Layer_1" xmlns="http://www.w3.org/2000/svg" xmlns:xlink="http://www.w3.org/1999/xlink" x="0px" y="0px"
	 width="139.229px" height="109.615px" viewBox="0 0 139.229 109.615" enable-background="new 0 0 139.229 109.615"
	 xml:space="preserve">
<g>
	<path fill="none" d="M124.26,52.123c-1.154-1.461-2.307-2.925-3.46-4.389c-1.841-2.339-3.681-4.678-5.535-7.008l-2.573,0.462
		c-2.858,0.513-5.717,1.026-8.575,1.542l0.657,0.902c2.687,3.687,5.462,7.495,8.232,11.217c3.283-0.763,6.607-1.582,9.827-2.375
		C123.309,52.357,123.785,52.24,124.26,52.123z"/>
	<path fill="none" d="M109.888,65.284c-8.757,2.294-17.518,4.572-26.28,6.849l-8.615,2.239c3.607,6.179,7.22,12.355,10.837,18.531
		c8.682-2.97,17.515-5.964,26.058-8.859l9.354-3.172c-1.123-1.541-2.25-3.084-3.376-4.623
		C115.244,72.661,112.536,68.952,109.888,65.284z"/>
	<path fill="none" d="M18.537,30.533c6.698,13.793,13.624,28.054,20.403,42.099c5.014-1.232,10.114-2.442,15.047-3.613
		c1.823-0.433,3.646-0.865,5.467-1.299l-6.028-10.392c-7.136-12.297-14.515-25.013-21.75-37.534
		c-0.042-0.072-0.081-0.134-0.114-0.186l-17.59,1.523L18.537,30.533z"/>
	<path d="M136.237,53.876c-0.426-0.509-0.854-1.019-1.278-1.528c-0.915-1.09-1.859-2.216-2.766-3.333
		c-2.236-2.757-4.467-5.521-6.698-8.285c-1.537-1.904-3.074-3.807-4.613-5.708c-1.001-1.238-2.635-2.884-5.238-2.884
		c-0.347,0-0.707,0.031-1.065,0.092c-2.423,0.41-4.848,0.81-7.273,1.213c-3.654,0.605-7.434,1.231-11.15,1.875
		c-0.938,0.164-3.133,0.545-3.932,2.477c-0.798,1.928,0.481,3.744,1.029,4.519c1.786,2.532,3.575,5.064,5.364,7.595
		c1.697,2.4,3.394,4.8,5.087,7.201c-11.277,2.703-22.554,5.398-33.832,8.094c-0.086,0.021-0.177,0.042-0.267,0.063
		c-0.063-0.103-0.126-0.21-0.188-0.313l-6.182-10.323c-7.659-12.789-15.578-26.014-23.397-39.003
		c-0.626-1.042-1.384-1.895-2.117-2.721c-0.292-0.328-0.583-0.656-0.86-0.993l-0.719-0.879h-5.741l-0.235,0.011
		c-0.783,0.077-1.566,0.158-2.349,0.238c-1.685,0.172-3.427,0.35-5.132,0.492c-2.934,0.245-5.87,0.474-8.805,0.704
		c-2.046,0.16-4.092,0.32-6.138,0.486l-0.272,0.021c-1.403,0.106-3.525,0.267-5.003,2.277L2,15.899v3.177l0.194,0.453
		c0.128,0.299,0.254,0.597,0.379,0.896c0.277,0.659,0.563,1.341,0.876,2.019C9.133,34.773,14.82,47.102,20.513,59.426
		c2.647,5.733,5.794,12.535,9.052,19.527c1.532,3.286,3.935,4.953,7.143,4.953c0.742,0,1.511-0.087,2.35-0.267
		c0.475-0.1,0.947-0.217,1.417-0.338c7.905-2.034,15.811-4.071,23.718-6.109c0.141-0.036,0.289-0.074,0.427-0.11
		c0.067,0.118,0.138,0.243,0.208,0.368c0.941,1.665,1.882,3.333,2.822,5.001c3.218,5.708,6.542,11.609,9.902,17.374
		c0.722,1.235,1.723,2.201,2.605,3.055c0.364,0.351,0.711,0.684,1.019,1.015l0.712,0.771h3.897l7.907-2.789
		c5.915-2.085,11.831-4.172,17.741-6.275c4.36-1.552,8.779-3.157,13.053-4.706c1.677-0.609,3.354-1.218,5.031-1.824
		c0.612-0.223,1.086-0.409,1.53-0.604c1.167-0.51,2.561-1.304,2.99-2.913c0.484-1.819-0.694-3.413-1.137-4.012
		c-3.085-4.174-6.186-8.338-9.285-12.501c-1.432-1.924-2.864-3.847-4.296-5.773c1.309-0.349,2.618-0.698,3.927-1.047
		c3.125-0.834,6.252-1.669,9.375-2.517c0.701-0.19,1.35-0.453,1.92-0.685c0.23-0.093,0.463-0.188,0.694-0.276l1.556-0.585v-3.614
		L136.237,53.876z M111.887,84.044c-8.543,2.896-17.376,5.89-26.058,8.859c-3.617-6.176-7.229-12.353-10.837-18.531l8.615-2.239
		c8.763-2.276,17.523-4.555,26.28-6.849c2.647,3.668,5.355,7.377,7.977,10.965c1.126,1.539,2.253,3.082,3.376,4.623L111.887,84.044z
		 M104.774,43.633l-0.657-0.902c2.858-0.517,5.717-1.029,8.575-1.542l2.573-0.462c1.854,2.33,3.694,4.668,5.535,7.008
		c1.153,1.463,2.306,2.928,3.46,4.389c-0.476,0.118-0.951,0.235-1.427,0.352c-3.22,0.793-6.544,1.612-9.827,2.375
		C110.236,51.128,107.461,47.319,104.774,43.633z M31.677,19.794c7.235,12.521,14.613,25.237,21.75,37.534l6.028,10.392
		c-1.822,0.434-3.645,0.866-5.467,1.299c-4.933,1.171-10.034,2.381-15.047,3.613c-6.779-14.045-13.705-28.306-20.403-42.099
		l-4.564-9.401l17.59-1.523C31.596,19.66,31.635,19.722,31.677,19.794z"/>
</g>
</svg>
